<?xml version="1.0" encoding="UTF-8"?> <svg xmlns="http://www.w3.org/2000/svg" width="195.916" height="82.166" viewBox="0 0 195.916 82.166"><g id="Logo" transform="translate(-104.039 623.279)"><g id="Group_2944" data-name="Group 2944" transform="translate(178.113 -611.935)"><path id="Path_8591" data-name="Path 8591" d="M312.662-589.259h0a7.005,7.005,0,0,0-3.6-2.677,11.024,11.024,0,0,0-3.231-.455H296.8v20.866h9.031a7.629,7.629,0,0,0,7.047-3.924,13.839,13.839,0,0,0,1.665-7.006,16.09,16.09,0,0,0-.393-3.425A9.353,9.353,0,0,0,312.662-589.259Zm-11.228.9h3.681c1.833,0,3.067.519,3.666,1.542a9.357,9.357,0,0,1,.941,4.647,10.267,10.267,0,0,1-.633,3.79,3.984,3.984,0,0,1-3.975,2.813h-3.681Z" transform="translate(-296.803 592.916)" fill="#03408a"></path><rect id="Rectangle_2587" data-name="Rectangle 2587" width="4.728" height="20.866" transform="translate(22.184 0.525)" fill="#03408a"></rect><path id="Path_8592" data-name="Path 8592" d="M389.232-579.9h4.662a5.009,5.009,0,0,1-1.553,2.785A4.833,4.833,0,0,1,389-575.948a5.415,5.415,0,0,1-3.728-1.493c-1.082-.984-1.631-2.709-1.631-5.125a8.223,8.223,0,0,1,1.522-5.416,4.8,4.8,0,0,1,3.851-1.767,5.574,5.574,0,0,1,2.234.435,3.719,3.719,0,0,1,2.22,2.743l.045.193h4.667l-.033-.279a7.594,7.594,0,0,0-2.789-5.074,9.691,9.691,0,0,0-6.4-2.027,9.558,9.558,0,0,0-7.383,3.064,11.591,11.591,0,0,0-2.787,8.094,10.971,10.971,0,0,0,2.76,7.874,8.892,8.892,0,0,0,6.816,2.884,8.085,8.085,0,0,0,4.274-1.067,9.061,9.061,0,0,0,1.923-1.69l.376,2.232h3.279V-583.8h-8.983Z" transform="translate(-347.283 593.758)" fill="#03408a"></path><rect id="Rectangle_2588" data-name="Rectangle 2588" width="4.728" height="20.866" transform="translate(56.244 0.525)" fill="#03408a"></rect><path id="Path_8593" data-name="Path 8593" d="M465.552-588.286h6.121v16.76h4.783v-16.76h6.093v-4.106h-17Z" transform="translate(-400.706 592.917)" fill="#03408a"></path><path id="Path_8594" data-name="Path 8594" d="M525.387-580.424h9.893v-4.037h-9.893v-3.825h10.777v-4.106H520.728v20.866h15.933v-4.161H525.387Z" transform="translate(-434.68 592.917)" fill="#03408a"></path><path id="Path_8595" data-name="Path 8595" d="M579.725-575.686v-16.7H574.97v20.866h14.924v-4.161Z" transform="translate(-468.078 592.917)" fill="#03408a"></path></g><path id="Path_8596" data-name="Path 8596" d="M298.578-585.9H171.363l-7.089-9.049v9.049h-3.236v-13.178l-7.858-10.036V-585.9h-3.235v-27.342l-7.863-10.04V-585.9h-3.236v-37.339L130.984-613.2v27.3h-3.231v-23.175l-7.863,10.04V-585.9h-3.236V-594.9L109.6-585.9h-4.184a1.377,1.377,0,0,0-1.377,1.377v4.739a1.377,1.377,0,0,0,1.377,1.377h4.763l.039.048h6.052v7.448l3.38,4.159v-11.607h8.358v21.893l2.728,3.357v-25.25h8.358v35.536l1.387,1.706,1.341-1.651v-35.591h8.358v25.305l2.728-3.357v-21.948h8.358v11.663L164-570.051v-8.3h6.749l.039-.048H298.578a1.377,1.377,0,0,0,1.377-1.377v-4.739A1.377,1.377,0,0,0,298.578-585.9Zm-122.936,4.764a.472.472,0,0,1-.472.472H106.433a.471.471,0,0,1-.472-.472v-2.035a.472.472,0,0,1,.472-.472H175.17a.472.472,0,0,1,.472.472Z" transform="translate(0 0)" fill="#03408a"></path><g id="Group_2945" data-name="Group 2945" transform="translate(176.692 -576.525)"><path id="Path_8597" data-name="Path 8597" d="M301.272-491.216a3.783,3.783,0,0,0-1.5-1.28,4.508,4.508,0,0,0-2.027-.49,4.257,4.257,0,0,0-3.359,1.479,5.629,5.629,0,0,0-1.278,3.814,5.185,5.185,0,0,0,1.274,3.717,4.161,4.161,0,0,0,3.115,1.337,5.643,5.643,0,0,0,1.336-.146,3.884,3.884,0,0,0,1.87-.995,4.3,4.3,0,0,0,.814-1.088,3.481,3.481,0,0,0,.43-1.221l.02-.172h-1.858l-.031.112a2.643,2.643,0,0,1-.569,1.046,2.386,2.386,0,0,1-1.88.774,2.123,2.123,0,0,1-1.852-.81,3.823,3.823,0,0,1-.646-2.073h6.949v-.154a11.164,11.164,0,0,0-.144-2.117A4.407,4.407,0,0,0,301.272-491.216Zm-3.629-.072a2.156,2.156,0,0,1,2.055,1.074,3.815,3.815,0,0,1,.415,1.427h-4.939a2.809,2.809,0,0,1,.738-1.756A2.257,2.257,0,0,1,297.644-491.288Z" transform="translate(-293.104 496.3)" fill="#03408a"></path><path id="Path_8598" data-name="Path 8598" d="M329.63-492.986a3.976,3.976,0,0,0-1.742.379,4.109,4.109,0,0,0-1.206.922v-1.088H324.86v9.8h1.9V-488.1a6.4,6.4,0,0,1,.115-1.4,2.208,2.208,0,0,1,.486-.907,2.256,2.256,0,0,1,1.082-.733,3.013,3.013,0,0,1,.884-.108,1.4,1.4,0,0,1,1.4.8,3.1,3.1,0,0,1,.242,1.333v6.135H332.9v-6.241a5.172,5.172,0,0,0-.406-2.275A2.914,2.914,0,0,0,329.63-492.986Z" transform="translate(-312.657 496.3)" fill="#03408a"></path><path id="Path_8599" data-name="Path 8599" d="M357.822-485.036l-2.426-7.4h-2.184l3.576,9.7.037.1h1.915l3.7-9.8h-2.078Z" transform="translate(-330.114 495.96)" fill="#03408a"></path><rect id="Rectangle_2589" data-name="Rectangle 2589" width="1.929" height="2.115" transform="translate(34.889 0)" fill="#03408a"></rect><rect id="Rectangle_2590" data-name="Rectangle 2590" width="1.929" height="9.753" transform="translate(34.889 3.571)" fill="#03408a"></rect><path id="Path_8600" data-name="Path 8600" d="M403.032-492.977c-.077-.007-.131-.009-.163-.009a2.524,2.524,0,0,0-1.78.729,5.751,5.751,0,0,0-.653.712v-1.228h-1.823v9.8h1.9v-5.612a2.565,2.565,0,0,1,.611-1.687,2.111,2.111,0,0,1,1.733-.72q.135,0,.25.009a2.158,2.158,0,0,1,.244.033l.183.035v-2.008l-.138-.014C403.225-492.959,403.1-492.971,403.032-492.977Z" transform="translate(-358.068 496.3)" fill="#03408a"></path><path id="Path_8601" data-name="Path 8601" d="M425.429-491.882a4.464,4.464,0,0,0-3.208-1.266,4.238,4.238,0,0,0-3.377,1.471,5.834,5.834,0,0,0-1.251,3.91,5.4,5.4,0,0,0,1.19,3.659,4.073,4.073,0,0,0,3.226,1.378,4.2,4.2,0,0,0,3.588-1.559,6.348,6.348,0,0,0,1.147-3.884,4.943,4.943,0,0,0-1.315-3.708Zm-3.27,7.471a2.18,2.18,0,0,1-1.981-.941,4.374,4.374,0,0,1-.639-2.441,5.052,5.052,0,0,1,.643-2.615,2.129,2.129,0,0,1,1.995-1.041,2.232,2.232,0,0,1,2.184,1.228,4.626,4.626,0,0,1,.409,2.092,5.861,5.861,0,0,1-.573,2.6A2.042,2.042,0,0,1,422.159-484.411Z" transform="translate(-369.755 496.4)" fill="#03408a"></path><rect id="Rectangle_2591" data-name="Rectangle 2591" width="4.756" height="1.947" transform="translate(60.553 7.142)" fill="#03408a"></rect><path id="Path_8602" data-name="Path 8602" d="M476.492-487.985a8.2,8.2,0,0,0-2.353-.828l-1.054-.257a3.529,3.529,0,0,1-1-.372.972.972,0,0,1-.538-.861.929.929,0,0,1,.4-.789,2.145,2.145,0,0,1,1.278-.315,2.307,2.307,0,0,1,1.783.568,1.7,1.7,0,0,1,.35.9l.012.141h1.8l0-.151a2.9,2.9,0,0,0-.607-1.814,3.781,3.781,0,0,0-3.215-1.32,4.036,4.036,0,0,0-2.71.87,2.894,2.894,0,0,0-1.024,2.3,2.164,2.164,0,0,0,1.1,1.919,6.343,6.343,0,0,0,1.836.693l1.267.319a6.424,6.424,0,0,1,1.324.435.868.868,0,0,1,.465.8,1.128,1.128,0,0,1-.6,1.058,2.95,2.95,0,0,1-1.483.365,2.376,2.376,0,0,1-1.969-.711,2.182,2.182,0,0,1-.367-1.143l-.013-.14h-1.834l.007.161a3.8,3.8,0,0,0,.984,2.476,4.086,4.086,0,0,0,3.113,1.011,4.253,4.253,0,0,0,3.034-.964,3.091,3.091,0,0,0,1.009-2.3A2.289,2.289,0,0,0,476.492-487.985Z" transform="translate(-401.619 496.357)" fill="#03408a"></path><path id="Path_8603" data-name="Path 8603" d="M506.332-491.216a3.78,3.78,0,0,0-1.5-1.28,4.506,4.506,0,0,0-2.027-.49,4.258,4.258,0,0,0-3.359,1.479,5.628,5.628,0,0,0-1.278,3.814,5.185,5.185,0,0,0,1.275,3.717,4.16,4.16,0,0,0,3.115,1.337,5.65,5.65,0,0,0,1.337-.146,3.888,3.888,0,0,0,1.87-.995,4.314,4.314,0,0,0,.814-1.088,3.466,3.466,0,0,0,.43-1.221l.02-.172h-1.858l-.031.112a2.644,2.644,0,0,1-.569,1.046,2.386,2.386,0,0,1-1.879.774,2.123,2.123,0,0,1-1.852-.81,3.82,3.82,0,0,1-.646-2.073h6.949v-.154a11.17,11.17,0,0,0-.144-2.117A4.4,4.4,0,0,0,506.332-491.216Zm-3.628-.072a2.156,2.156,0,0,1,2.055,1.074,3.807,3.807,0,0,1,.415,1.427h-4.939a2.809,2.809,0,0,1,.738-1.756A2.257,2.257,0,0,1,502.7-491.288Z" transform="translate(-419.364 496.3)" fill="#03408a"></path><path id="Path_8604" data-name="Path 8604" d="M534.689-492.986a3.973,3.973,0,0,0-1.742.379,4.105,4.105,0,0,0-1.206.922v-1.088h-1.823v9.8h1.9V-488.1a6.427,6.427,0,0,1,.115-1.4,2.207,2.207,0,0,1,.486-.907,2.256,2.256,0,0,1,1.081-.733,3.015,3.015,0,0,1,.884-.108,1.4,1.4,0,0,1,1.4.8,3.1,3.1,0,0,1,.242,1.333v6.135h1.929v-6.241a5.172,5.172,0,0,0-.407-2.275A2.914,2.914,0,0,0,534.689-492.986Z" transform="translate(-438.917 496.3)" fill="#03408a"></path><path id="Path_8605" data-name="Path 8605" d="M566.845-487.985a8.191,8.191,0,0,0-2.353-.828l-1.054-.257a3.536,3.536,0,0,1-1-.372.971.971,0,0,1-.537-.861.929.929,0,0,1,.4-.789,2.142,2.142,0,0,1,1.277-.315,2.308,2.308,0,0,1,1.783.568,1.7,1.7,0,0,1,.35.9l.011.141h1.8l0-.151a2.9,2.9,0,0,0-.607-1.814,3.782,3.782,0,0,0-3.215-1.32,4.035,4.035,0,0,0-2.709.87,2.894,2.894,0,0,0-1.024,2.3,2.164,2.164,0,0,0,1.1,1.919,6.34,6.34,0,0,0,1.835.693l1.267.319a6.407,6.407,0,0,1,1.324.435.868.868,0,0,1,.464.8,1.127,1.127,0,0,1-.6,1.058,2.953,2.953,0,0,1-1.484.365,2.377,2.377,0,0,1-1.969-.711,2.185,2.185,0,0,1-.367-1.143l-.012-.14H559.7l.007.161a3.8,3.8,0,0,0,.984,2.476,4.084,4.084,0,0,0,3.113,1.011,4.254,4.254,0,0,0,3.035-.964,3.091,3.091,0,0,0,1.009-2.3A2.288,2.288,0,0,0,566.845-487.985Z" transform="translate(-457.252 496.357)" fill="#03408a"></path><path id="Path_8606" data-name="Path 8606" d="M597.49-487.365a11.168,11.168,0,0,0-.144-2.117,4.408,4.408,0,0,0-.661-1.734,3.783,3.783,0,0,0-1.5-1.28,4.508,4.508,0,0,0-2.027-.49,4.257,4.257,0,0,0-3.359,1.479,5.628,5.628,0,0,0-1.279,3.814,5.185,5.185,0,0,0,1.274,3.717,4.162,4.162,0,0,0,3.115,1.337,5.644,5.644,0,0,0,1.336-.146,3.883,3.883,0,0,0,1.869-.995,4.3,4.3,0,0,0,.814-1.088,3.474,3.474,0,0,0,.43-1.221l.02-.172h-1.858l-.032.112a2.644,2.644,0,0,1-.569,1.046,2.386,2.386,0,0,1-1.879.774,2.123,2.123,0,0,1-1.852-.81,3.824,3.824,0,0,1-.646-2.073h6.949Zm-4.433-3.922a2.156,2.156,0,0,1,2.055,1.074,3.816,3.816,0,0,1,.415,1.427h-4.939a2.811,2.811,0,0,1,.738-1.756A2.257,2.257,0,0,1,593.057-491.288Z" transform="translate(-474.997 496.3)" fill="#03408a"></path></g></g></svg> 